<?xml version="1.0" encoding="UTF-8" standalone="no"?>
<!DOCTYPE svg PUBLIC "-//W3C//DTD SVG 1.1//EN" "http://www.w3.org/Graphics/SVG/1.1/DTD/svg11.dtd">
<svg class="checkbox" width="100%" height="100%" viewBox="0 0 100 100" version="1.1" xmlns="http://www.w3.org/2000/svg" xmlns:xlink="http://www.w3.org/1999/xlink">
  <path class="border"
    d="M100,20.485C100,9.179 90.821,0 79.515,0L20.485,0C9.179,0 0,9.179 0,20.485L0,79.515C0,90.821 9.179,100 20.485,100L79.515,100C90.821,100 100,90.821 100,79.515L100,20.485Z"
    style="fill:#4d4d4d;"/>
  <path class="background"
    d="M89.967,22.23C89.967,15.498 84.502,10.033 77.77,10.033L22.23,10.033C15.498,10.033 10.033,15.498 10.033,22.23L10.033,77.77C10.033,84.502 15.498,89.967 22.23,89.967L77.77,89.967C84.502,89.967 89.967,84.502 89.967,77.77L89.967,22.23Z"
    style="fill:#262626;"/>
  <path class="indeterminate"
    d="M79.979,26.276C79.979,22.824 77.176,20.021 73.724,20.021L26.276,20.021C22.824,20.021 20.021,22.824 20.021,26.276L20.021,73.724C20.021,77.176 22.824,79.979 26.276,79.979L73.724,79.979C77.176,79.979 79.979,77.176 79.979,73.724L79.979,26.276Z"
    style="fill:#7e7e7e;"/>
</svg>
