<?xml version="1.0" encoding="UTF-8" standalone="no"?>
<!DOCTYPE svg PUBLIC "-//W3C//DTD SVG 1.1//EN" "http://www.w3.org/Graphics/SVG/1.1/DTD/svg11.dtd">
<svg class="logo" width="100%" height="100%" viewBox="0 0 413 40" version="1.1" xmlns="http://www.w3.org/2000/svg">
  <rect class="canvas" x="0" y="0" width="412" height="40" style="fill:none;" />
  <path class="text"
    d="M107.537,28.002c-0,4.552 -5.04,8.242 -11.256,8.242c-5.5,0 -9.895,-2.607 -11.304,-6.141c-0.097,-0.243 -0.274,-0.716 -0.373,-0.957c-0.081,-0.198 0.024,-0.423 0.225,-0.497l1.568,-0.589c0.181,-0.066 0.384,0.012 0.47,0.184c0.152,0.302 0.371,0.926 0.857,1.764c1.314,2.264 4.666,3.985 8.557,3.985c4.826,-0 8.737,-2.682 8.737,-5.991c0,-2.217 -1.757,-4.153 -4.369,-5.189c-0.242,-0.096 -9.786,-3.459 -9.786,-3.459l-0.001,-0c-3.319,-1.374 -5.566,-4.025 -5.566,-7.07c-0,-4.456 4.817,-8.07 10.76,-8.07c4.799,0 8.842,2.383 10.288,5.612c0.158,0.351 0.42,0.851 0.561,1.236c0.077,0.21 -0.004,0.444 -0.214,0.521l-1.587,0.568c-0.182,0.066 -0.424,-0.054 -0.496,-0.234c-0.209,-0.525 -0.458,-1.045 -0.811,-1.63c-1.142,-2.232 -4.185,-3.812 -7.741,-3.812c-4.552,0 -8.242,2.601 -8.242,5.809c-0,2.151 1.657,4.028 4.121,5.032c0.222,0.091 10.819,3.943 10.819,3.943l0,0c2.893,1.492 4.783,3.956 4.783,6.743Zm-37.687,-7.839c0,8.851 -7.175,16.026 -16.025,16.026c-8.851,-0 -16.026,-7.175 -16.026,-16.026c0,-8.85 7.175,-16.025 16.026,-16.025c8.85,-0 16.025,7.175 16.025,16.025Zm175.077,15.263l-1.959,-0c-0.221,-0 -0.422,-0.128 -0.517,-0.326l-12.4,-25.997c-0.069,-0.146 -0.275,-0.146 -0.345,0l-12.398,25.997c-0.096,0.198 -0.297,0.326 -0.517,0.326l-1.96,-0c-0.211,-0 -0.35,-0.221 -0.257,-0.412l15.048,-30.853c0.104,-0.215 0.409,-0.215 0.514,-0l15.049,30.853c0.092,0.191 -0.046,0.412 -0.258,0.412Zm-99.148,-30.144l-0,1.488c-0,0.211 -0.171,0.382 -0.382,0.382l-9.92,0c-0.106,0 -0.191,0.085 -0.191,0.191l-0,27.701c-0,0.211 -0.171,0.382 -0.382,0.382l-1.755,-0c-0.21,-0 -0.381,-0.171 -0.381,-0.382l-0,-27.701c-0,-0.106 -0.086,-0.191 -0.191,-0.191l-9.883,0c-0.21,0 -0.381,-0.171 -0.381,-0.382l-0,-1.488c-0,-0.21 0.171,-0.381 0.381,-0.381l22.703,-0c0.211,-0 0.382,0.171 0.382,0.381Zm54.06,0l-0,29.762c-0,0.211 -0.171,0.382 -0.382,0.382l-1.755,-0c-0.211,-0 -0.381,-0.171 -0.381,-0.382l-0,-14.9c-0,-0.105 -0.086,-0.191 -0.191,-0.191l-19.212,0c-0.105,0 -0.191,0.086 -0.191,0.191l0,14.9c0,0.211 -0.17,0.382 -0.381,0.382l-1.755,-0c-0.211,-0 -0.382,-0.171 -0.382,-0.382l0,-29.762c0,-0.21 0.171,-0.381 0.382,-0.381l1.755,-0c0.211,-0 0.381,0.171 0.381,0.381l0,12.229c0,0.106 0.086,0.191 0.191,0.191l19.212,0c0.105,0 0.191,-0.085 0.191,-0.191l-0,-12.229c-0,-0.21 0.17,-0.381 0.381,-0.381l1.755,-0c0.211,-0 0.382,0.171 0.382,0.381Zm-176.663,28.274l0,1.488c0,0.211 -0.171,0.382 -0.381,0.382l-17.667,-0c-0.21,-0 -0.381,-0.171 -0.381,-0.382l-0,-29.762c-0,-0.21 0.171,-0.381 0.381,-0.381l1.756,-0c0.21,-0 0.381,0.171 0.381,0.381l0,27.702c0,0.105 0.085,0.19 0.191,0.19l15.339,0c0.21,0 0.381,0.171 0.381,0.382Zm295.041,-13.794c-0.193,-0.091 -0.223,-0.353 -0.055,-0.485c1.9,-1.49 3.11,-3.737 3.11,-6.249c0,-4.489 -3.861,-8.127 -8.623,-8.127l-13.279,-0c-0.21,-0 -0.381,0.171 -0.381,0.381l-0,29.762c-0,0.211 0.171,0.382 0.381,0.382l14.958,-0c4.836,-0 8.756,-3.699 8.756,-8.261c0,-3.244 -1.982,-6.052 -4.867,-7.403Zm81.899,3.58c-0.112,-0.154 -0.045,-0.373 0.135,-0.438c3.698,-1.327 6.329,-4.723 6.329,-8.703c-0,-5.136 -4.382,-9.3 -9.788,-9.3l-11.961,-0c-0.211,-0 -0.382,0.171 -0.382,0.381l0,29.762c0,0.211 0.171,0.382 0.382,0.382l1.755,-0c0.211,-0 0.381,-0.171 0.381,-0.382l0,-11.351c0,-0.106 0.086,-0.191 0.191,-0.191l9.894,-0c0.184,-0 0.358,0.089 0.465,0.239l8.199,11.446c0.107,0.15 0.28,0.239 0.465,0.239l2.188,-0c0.234,-0 0.37,-0.266 0.232,-0.455l-8.485,-11.629Zm-124.506,0c-0.112,-0.154 -0.045,-0.373 0.135,-0.438c3.698,-1.327 6.328,-4.723 6.328,-8.703c0,-5.136 -4.381,-9.3 -9.787,-9.3l-11.961,-0c-0.211,-0 -0.382,0.171 -0.382,0.381l0,29.762c0,0.211 0.171,0.382 0.382,0.382l1.755,-0c0.21,-0 0.381,-0.171 0.381,-0.382l0,-11.351c0,-0.106 0.086,-0.191 0.191,-0.191l9.894,-0c0.184,-0 0.358,0.089 0.465,0.239l8.199,11.446c0.107,0.15 0.28,0.239 0.465,0.239l2.188,-0c0.234,-0 0.37,-0.266 0.232,-0.455l-8.485,-11.629Zm-221.785,-16.953c-7.46,-0 -13.508,6.167 -13.508,13.774c0,7.608 6.048,13.775 13.508,13.775c7.459,-0 13.507,-6.167 13.507,-13.775c-0,-7.607 -6.048,-13.774 -13.507,-13.774Zm260.503,26.785l-12.63,0c-0.106,0 -0.191,-0.085 -0.191,-0.19l0,-11.638c0,-0.105 0.085,-0.191 0.191,-0.191l12.63,0c3.445,0 6.238,2.691 6.238,6.01c0,3.319 -2.793,6.009 -6.238,6.009Zm72.639,-25.774c0,-0.105 0.086,-0.191 0.191,-0.191l9.634,0c4.078,0 7.384,3.144 7.384,7.021c-0,3.877 -3.306,7.021 -7.384,7.021l-9.634,-0c-0.105,-0 -0.191,-0.086 -0.191,-0.191l0,-13.66Zm-124.506,-0c0,-0.105 0.086,-0.191 0.191,-0.191l9.634,0c4.078,0 7.384,3.144 7.384,7.021c-0,3.877 -3.306,7.021 -7.384,7.021l-9.634,-0c-0.105,-0 -0.191,-0.086 -0.191,-0.191l0,-13.66Zm39.046,-0.057c0,-0.106 0.085,-0.191 0.191,-0.191l10.951,-0c3.371,-0 6.105,2.631 6.105,5.876c-0,3.245 -2.734,5.876 -6.105,5.876l-10.951,0c-0.106,0 -0.191,-0.085 -0.191,-0.191l0,-11.37Z"
    style="fill:#fff;fill-rule:nonzero;" />
  <path class="accent"
    d="M369.722,20.163c-0,8.851 -7.175,16.026 -16.026,16.026c-8.851,-0 -16.026,-7.175 -16.026,-16.026c0,-8.85 7.175,-16.025 16.026,-16.025c8.851,-0 16.026,7.175 16.026,16.025Zm-16.026,-13.774c-7.46,-0 -13.507,6.167 -13.507,13.774c-0,7.608 6.047,13.775 13.507,13.775c7.46,-0 13.507,-6.167 13.507,-13.775c0,-7.607 -6.047,-13.774 -13.507,-13.774Zm-297.08,13.774c0,1.542 -1.25,2.792 -2.791,2.792c-1.542,-0 -2.792,-1.25 -2.792,-2.792c0,-1.542 1.25,-2.791 2.792,-2.791c1.541,-0 2.791,1.249 2.791,2.791Z"
    style="fill:#f47720;fill-rule:nonzero;" />
</svg>
